<mxfile host="app.diagrams.net" modified="2022-05-10T22:06:58.831Z" agent="5.0 (Windows NT 10.0; Win64; x64) AppleWebKit/537.36 (KHTML, like Gecko) Chrome/101.0.4951.54 Safari/537.36" etag="Pl1TfZiErVc81ZZFwf5s" version="17.5.0" type="github">
  <diagram id="nlkPnwCIeHFaATNDk7t9" name="Page-1">
    <mxGraphModel dx="2249" dy="705" grid="1" gridSize="10" guides="1" tooltips="1" connect="1" arrows="1" fold="1" page="1" pageScale="1" pageWidth="827" pageHeight="1169" math="0" shadow="0">
      <root>
        <mxCell id="0" />
        <mxCell id="1" parent="0" />
        <mxCell id="x7gbHvze0u9rKhDAbI1o-14" style="edgeStyle=orthogonalEdgeStyle;rounded=0;orthogonalLoop=1;jettySize=auto;html=1;exitX=0.5;exitY=1;exitDx=0;exitDy=0;entryX=0.5;entryY=0;entryDx=0;entryDy=0;" parent="1" source="x7gbHvze0u9rKhDAbI1o-1" target="x7gbHvze0u9rKhDAbI1o-2" edge="1">
          <mxGeometry relative="1" as="geometry" />
        </mxCell>
        <mxCell id="x7gbHvze0u9rKhDAbI1o-38" style="edgeStyle=orthogonalEdgeStyle;rounded=0;orthogonalLoop=1;jettySize=auto;html=1;exitX=0.5;exitY=1;exitDx=0;exitDy=0;entryX=0.5;entryY=0;entryDx=0;entryDy=0;" parent="1" source="x7gbHvze0u9rKhDAbI1o-1" target="x7gbHvze0u9rKhDAbI1o-6" edge="1">
          <mxGeometry relative="1" as="geometry" />
        </mxCell>
        <mxCell id="x7gbHvze0u9rKhDAbI1o-61" style="edgeStyle=orthogonalEdgeStyle;rounded=0;orthogonalLoop=1;jettySize=auto;html=1;exitX=0.5;exitY=1;exitDx=0;exitDy=0;entryX=0.5;entryY=0;entryDx=0;entryDy=0;" parent="1" source="x7gbHvze0u9rKhDAbI1o-1" target="sU1CsyUOXi9waq4NskRp-3" edge="1">
          <mxGeometry relative="1" as="geometry">
            <mxPoint x="990" y="125" as="targetPoint" />
          </mxGeometry>
        </mxCell>
        <mxCell id="x7gbHvze0u9rKhDAbI1o-1" value="ERROR BIAS" style="rounded=0;whiteSpace=wrap;html=1;" parent="1" vertex="1">
          <mxGeometry x="580" y="40" width="120" height="60" as="geometry" />
        </mxCell>
        <mxCell id="x7gbHvze0u9rKhDAbI1o-15" style="edgeStyle=orthogonalEdgeStyle;rounded=0;orthogonalLoop=1;jettySize=auto;html=1;exitX=0.5;exitY=1;exitDx=0;exitDy=0;entryX=0.5;entryY=0;entryDx=0;entryDy=0;" parent="1" source="x7gbHvze0u9rKhDAbI1o-2" target="x7gbHvze0u9rKhDAbI1o-7" edge="1">
          <mxGeometry relative="1" as="geometry" />
        </mxCell>
        <mxCell id="x7gbHvze0u9rKhDAbI1o-19" style="edgeStyle=orthogonalEdgeStyle;rounded=0;orthogonalLoop=1;jettySize=auto;html=1;exitX=0.5;exitY=1;exitDx=0;exitDy=0;entryX=0.5;entryY=0;entryDx=0;entryDy=0;" parent="1" source="x7gbHvze0u9rKhDAbI1o-2" target="x7gbHvze0u9rKhDAbI1o-3" edge="1">
          <mxGeometry relative="1" as="geometry" />
        </mxCell>
        <mxCell id="x7gbHvze0u9rKhDAbI1o-2" value="ONE-WAY&lt;br&gt;Independent var&lt;br&gt;vs&lt;br&gt;Dependent var" style="rounded=0;whiteSpace=wrap;html=1;" parent="1" vertex="1">
          <mxGeometry x="70" y="150" width="160" height="90" as="geometry" />
        </mxCell>
        <mxCell id="x7gbHvze0u9rKhDAbI1o-23" style="edgeStyle=orthogonalEdgeStyle;rounded=0;orthogonalLoop=1;jettySize=auto;html=1;exitX=0.5;exitY=1;exitDx=0;exitDy=0;entryX=0.5;entryY=0;entryDx=0;entryDy=0;endArrow=none;" parent="1" source="x7gbHvze0u9rKhDAbI1o-3" target="x7gbHvze0u9rKhDAbI1o-20" edge="1">
          <mxGeometry relative="1" as="geometry" />
        </mxCell>
        <mxCell id="x7gbHvze0u9rKhDAbI1o-25" style="edgeStyle=orthogonalEdgeStyle;rounded=0;orthogonalLoop=1;jettySize=auto;html=1;exitX=0.5;exitY=1;exitDx=0;exitDy=0;entryX=0.5;entryY=0;entryDx=0;entryDy=0;endArrow=none;" parent="1" source="x7gbHvze0u9rKhDAbI1o-3" target="x7gbHvze0u9rKhDAbI1o-22" edge="1">
          <mxGeometry relative="1" as="geometry">
            <Array as="points">
              <mxPoint x="260" y="360" />
              <mxPoint x="185" y="360" />
            </Array>
          </mxGeometry>
        </mxCell>
        <mxCell id="x7gbHvze0u9rKhDAbI1o-3" value="Independent type:&lt;br&gt;CATEGORICAL&lt;br&gt;(2 or more groups)" style="rounded=0;whiteSpace=wrap;html=1;" parent="1" vertex="1">
          <mxGeometry x="200" y="280" width="120" height="60" as="geometry" />
        </mxCell>
        <mxCell id="x7gbHvze0u9rKhDAbI1o-50" style="edgeStyle=orthogonalEdgeStyle;rounded=0;orthogonalLoop=1;jettySize=auto;html=1;exitX=0.5;exitY=1;exitDx=0;exitDy=0;entryX=0.5;entryY=0;entryDx=0;entryDy=0;" parent="1" source="x7gbHvze0u9rKhDAbI1o-6" target="x7gbHvze0u9rKhDAbI1o-48" edge="1">
          <mxGeometry relative="1" as="geometry" />
        </mxCell>
        <mxCell id="x7gbHvze0u9rKhDAbI1o-51" style="edgeStyle=orthogonalEdgeStyle;rounded=0;orthogonalLoop=1;jettySize=auto;html=1;exitX=0.5;exitY=1;exitDx=0;exitDy=0;" parent="1" source="x7gbHvze0u9rKhDAbI1o-6" target="x7gbHvze0u9rKhDAbI1o-41" edge="1">
          <mxGeometry relative="1" as="geometry" />
        </mxCell>
        <mxCell id="x7gbHvze0u9rKhDAbI1o-52" style="edgeStyle=orthogonalEdgeStyle;rounded=0;orthogonalLoop=1;jettySize=auto;html=1;exitX=0.5;exitY=1;exitDx=0;exitDy=0;entryX=0.5;entryY=0;entryDx=0;entryDy=0;" parent="1" source="x7gbHvze0u9rKhDAbI1o-6" target="x7gbHvze0u9rKhDAbI1o-39" edge="1">
          <mxGeometry relative="1" as="geometry" />
        </mxCell>
        <mxCell id="x7gbHvze0u9rKhDAbI1o-53" style="edgeStyle=orthogonalEdgeStyle;rounded=0;orthogonalLoop=1;jettySize=auto;html=1;exitX=0.5;exitY=1;exitDx=0;exitDy=0;entryX=0.5;entryY=0;entryDx=0;entryDy=0;" parent="1" source="x7gbHvze0u9rKhDAbI1o-6" target="x7gbHvze0u9rKhDAbI1o-40" edge="1">
          <mxGeometry relative="1" as="geometry" />
        </mxCell>
        <mxCell id="x7gbHvze0u9rKhDAbI1o-6" value="N-WAY&lt;br&gt;N independent vars&lt;br&gt;vs&lt;br&gt;Dependent var" style="rounded=0;whiteSpace=wrap;html=1;" parent="1" vertex="1">
          <mxGeometry x="560" y="150" width="160" height="90" as="geometry" />
        </mxCell>
        <mxCell id="x7gbHvze0u9rKhDAbI1o-17" style="edgeStyle=orthogonalEdgeStyle;rounded=0;orthogonalLoop=1;jettySize=auto;html=1;entryX=0.5;entryY=0;entryDx=0;entryDy=0;" parent="1" target="x7gbHvze0u9rKhDAbI1o-8" edge="1">
          <mxGeometry relative="1" as="geometry">
            <Array as="points">
              <mxPoint x="-40" y="430" />
              <mxPoint x="-40" y="430" />
            </Array>
            <mxPoint x="-40" y="360" as="sourcePoint" />
          </mxGeometry>
        </mxCell>
        <mxCell id="sU1CsyUOXi9waq4NskRp-6" style="edgeStyle=orthogonalEdgeStyle;rounded=0;orthogonalLoop=1;jettySize=auto;html=1;entryX=1;entryY=0.5;entryDx=0;entryDy=0;strokeColor=none;" edge="1" parent="1" target="sU1CsyUOXi9waq4NskRp-2">
          <mxGeometry relative="1" as="geometry">
            <mxPoint x="-40" y="360" as="sourcePoint" />
          </mxGeometry>
        </mxCell>
        <mxCell id="sU1CsyUOXi9waq4NskRp-9" style="edgeStyle=orthogonalEdgeStyle;rounded=0;orthogonalLoop=1;jettySize=auto;html=1;exitX=0.5;exitY=1;exitDx=0;exitDy=0;" edge="1" parent="1" source="x7gbHvze0u9rKhDAbI1o-7">
          <mxGeometry relative="1" as="geometry">
            <mxPoint x="-160" y="360" as="targetPoint" />
            <mxPoint x="-40" y="340" as="sourcePoint" />
            <Array as="points">
              <mxPoint x="40" y="360" />
              <mxPoint x="-150" y="360" />
              <mxPoint x="-150" y="350" />
              <mxPoint x="-140" y="350" />
              <mxPoint x="-140" y="360" />
            </Array>
          </mxGeometry>
        </mxCell>
        <mxCell id="sU1CsyUOXi9waq4NskRp-13" style="edgeStyle=orthogonalEdgeStyle;rounded=0;orthogonalLoop=1;jettySize=auto;html=1;exitX=0.5;exitY=1;exitDx=0;exitDy=0;entryX=0.5;entryY=0;entryDx=0;entryDy=0;" edge="1" parent="1" source="x7gbHvze0u9rKhDAbI1o-7" target="sU1CsyUOXi9waq4NskRp-12">
          <mxGeometry relative="1" as="geometry">
            <Array as="points">
              <mxPoint x="40" y="360" />
              <mxPoint x="60" y="360" />
            </Array>
          </mxGeometry>
        </mxCell>
        <mxCell id="x7gbHvze0u9rKhDAbI1o-7" value="Independent type:&lt;br&gt;&lt;br&gt;NUMERICAL" style="rounded=0;whiteSpace=wrap;html=1;" parent="1" vertex="1">
          <mxGeometry x="-20" y="280" width="120" height="60" as="geometry" />
        </mxCell>
        <mxCell id="x7gbHvze0u9rKhDAbI1o-18" style="edgeStyle=orthogonalEdgeStyle;rounded=0;orthogonalLoop=1;jettySize=auto;html=1;exitX=0.5;exitY=1;exitDx=0;exitDy=0;entryX=0.5;entryY=0;entryDx=0;entryDy=0;" parent="1" source="x7gbHvze0u9rKhDAbI1o-8" target="x7gbHvze0u9rKhDAbI1o-9" edge="1">
          <mxGeometry relative="1" as="geometry" />
        </mxCell>
        <mxCell id="x7gbHvze0u9rKhDAbI1o-8" value="&lt;i&gt;&quot;Normality&quot;&lt;/i&gt;" style="rounded=0;whiteSpace=wrap;html=1;" parent="1" vertex="1">
          <mxGeometry x="-70" y="380" width="60" height="40" as="geometry" />
        </mxCell>
        <mxCell id="x7gbHvze0u9rKhDAbI1o-9" value="Pearson&lt;br&gt;(linear) correlation" style="ellipse;whiteSpace=wrap;html=1;" parent="1" vertex="1">
          <mxGeometry x="-82.5" y="515" width="85" height="60" as="geometry" />
        </mxCell>
        <mxCell id="x7gbHvze0u9rKhDAbI1o-10" value="Spearman (rank)&lt;br&gt;correlation" style="ellipse;whiteSpace=wrap;html=1;" parent="1" vertex="1">
          <mxGeometry x="-200" y="512.5" width="90" height="65" as="geometry" />
        </mxCell>
        <mxCell id="x7gbHvze0u9rKhDAbI1o-24" style="edgeStyle=orthogonalEdgeStyle;rounded=0;orthogonalLoop=1;jettySize=auto;html=1;exitX=0.5;exitY=1;exitDx=0;exitDy=0;entryX=0.5;entryY=0;entryDx=0;entryDy=0;endArrow=none;" parent="1" source="x7gbHvze0u9rKhDAbI1o-20" target="x7gbHvze0u9rKhDAbI1o-21" edge="1">
          <mxGeometry relative="1" as="geometry" />
        </mxCell>
        <mxCell id="x7gbHvze0u9rKhDAbI1o-20" value="Normality" style="rounded=0;whiteSpace=wrap;html=1;" parent="1" vertex="1">
          <mxGeometry x="269" y="380" width="60" height="40" as="geometry" />
        </mxCell>
        <mxCell id="x7gbHvze0u9rKhDAbI1o-29" style="edgeStyle=orthogonalEdgeStyle;rounded=0;orthogonalLoop=1;jettySize=auto;html=1;exitX=0.5;exitY=1;exitDx=0;exitDy=0;entryX=0.5;entryY=0;entryDx=0;entryDy=0;" parent="1" source="x7gbHvze0u9rKhDAbI1o-21" target="x7gbHvze0u9rKhDAbI1o-28" edge="1">
          <mxGeometry relative="1" as="geometry" />
        </mxCell>
        <mxCell id="x7gbHvze0u9rKhDAbI1o-21" value="Homoscedasticity" style="rounded=0;whiteSpace=wrap;html=1;" parent="1" vertex="1">
          <mxGeometry x="244" y="440" width="110" height="40" as="geometry" />
        </mxCell>
        <mxCell id="x7gbHvze0u9rKhDAbI1o-27" style="edgeStyle=orthogonalEdgeStyle;rounded=0;orthogonalLoop=1;jettySize=auto;html=1;exitX=0.5;exitY=1;exitDx=0;exitDy=0;entryX=0.5;entryY=0;entryDx=0;entryDy=0;" parent="1" source="x7gbHvze0u9rKhDAbI1o-22" target="x7gbHvze0u9rKhDAbI1o-26" edge="1">
          <mxGeometry relative="1" as="geometry" />
        </mxCell>
        <mxCell id="x7gbHvze0u9rKhDAbI1o-22" value="Groups come from&lt;br&gt;the same distribution" style="rounded=0;whiteSpace=wrap;html=1;" parent="1" vertex="1">
          <mxGeometry x="140" y="420" width="90" height="60" as="geometry" />
        </mxCell>
        <mxCell id="x7gbHvze0u9rKhDAbI1o-26" value="Kruskal-Wallis" style="ellipse;whiteSpace=wrap;html=1;" parent="1" vertex="1">
          <mxGeometry x="140" y="510" width="90" height="60" as="geometry" />
        </mxCell>
        <mxCell id="x7gbHvze0u9rKhDAbI1o-28" value="1-Way ANOVA" style="ellipse;whiteSpace=wrap;html=1;" parent="1" vertex="1">
          <mxGeometry x="254" y="510" width="90" height="60" as="geometry" />
        </mxCell>
        <mxCell id="x7gbHvze0u9rKhDAbI1o-32" value="H0: Both variables are NOT&lt;br&gt;correlated" style="rounded=0;whiteSpace=wrap;html=1;" parent="1" vertex="1">
          <mxGeometry x="-150" y="600" width="120" height="60" as="geometry" />
        </mxCell>
        <mxCell id="x7gbHvze0u9rKhDAbI1o-33" value="" style="endArrow=none;dashed=1;html=1;dashPattern=1 3;strokeWidth=2;rounded=0;exitX=0.5;exitY=1;exitDx=0;exitDy=0;entryX=0.5;entryY=0;entryDx=0;entryDy=0;" parent="1" source="x7gbHvze0u9rKhDAbI1o-10" target="x7gbHvze0u9rKhDAbI1o-32" edge="1">
          <mxGeometry width="50" height="50" relative="1" as="geometry">
            <mxPoint x="310" y="470" as="sourcePoint" />
            <mxPoint x="360" y="420" as="targetPoint" />
          </mxGeometry>
        </mxCell>
        <mxCell id="x7gbHvze0u9rKhDAbI1o-34" value="" style="endArrow=none;dashed=1;html=1;dashPattern=1 3;strokeWidth=2;rounded=0;exitX=0.5;exitY=1;exitDx=0;exitDy=0;" parent="1" source="x7gbHvze0u9rKhDAbI1o-9" edge="1">
          <mxGeometry width="50" height="50" relative="1" as="geometry">
            <mxPoint x="-135" y="580" as="sourcePoint" />
            <mxPoint x="-90" y="600" as="targetPoint" />
          </mxGeometry>
        </mxCell>
        <mxCell id="x7gbHvze0u9rKhDAbI1o-35" value="H0: Means are even&lt;br&gt;among groups" style="rounded=0;whiteSpace=wrap;html=1;" parent="1" vertex="1">
          <mxGeometry x="180" y="600" width="120" height="60" as="geometry" />
        </mxCell>
        <mxCell id="x7gbHvze0u9rKhDAbI1o-36" value="" style="endArrow=none;dashed=1;html=1;dashPattern=1 3;strokeWidth=2;rounded=0;entryX=0.5;entryY=1;entryDx=0;entryDy=0;exitX=0.5;exitY=0;exitDx=0;exitDy=0;" parent="1" source="x7gbHvze0u9rKhDAbI1o-35" target="x7gbHvze0u9rKhDAbI1o-26" edge="1">
          <mxGeometry width="50" height="50" relative="1" as="geometry">
            <mxPoint x="100" y="680" as="sourcePoint" />
            <mxPoint x="150" y="630" as="targetPoint" />
          </mxGeometry>
        </mxCell>
        <mxCell id="x7gbHvze0u9rKhDAbI1o-37" value="" style="endArrow=none;dashed=1;html=1;dashPattern=1 3;strokeWidth=2;rounded=0;exitX=0.5;exitY=0;exitDx=0;exitDy=0;entryX=0.5;entryY=1;entryDx=0;entryDy=0;" parent="1" source="x7gbHvze0u9rKhDAbI1o-35" target="x7gbHvze0u9rKhDAbI1o-28" edge="1">
          <mxGeometry width="50" height="50" relative="1" as="geometry">
            <mxPoint x="300" y="620" as="sourcePoint" />
            <mxPoint x="350" y="570" as="targetPoint" />
          </mxGeometry>
        </mxCell>
        <mxCell id="x7gbHvze0u9rKhDAbI1o-56" value="" style="edgeStyle=orthogonalEdgeStyle;rounded=0;orthogonalLoop=1;jettySize=auto;html=1;" parent="1" source="x7gbHvze0u9rKhDAbI1o-39" target="x7gbHvze0u9rKhDAbI1o-45" edge="1">
          <mxGeometry relative="1" as="geometry" />
        </mxCell>
        <mxCell id="x7gbHvze0u9rKhDAbI1o-39" value="1 Categorical + M&lt;br&gt;Numerical covariates" style="rounded=0;whiteSpace=wrap;html=1;" parent="1" vertex="1">
          <mxGeometry x="680" y="280" width="120" height="60" as="geometry" />
        </mxCell>
        <mxCell id="x7gbHvze0u9rKhDAbI1o-57" value="" style="edgeStyle=orthogonalEdgeStyle;rounded=0;orthogonalLoop=1;jettySize=auto;html=1;" parent="1" source="x7gbHvze0u9rKhDAbI1o-40" target="x7gbHvze0u9rKhDAbI1o-46" edge="1">
          <mxGeometry relative="1" as="geometry" />
        </mxCell>
        <mxCell id="x7gbHvze0u9rKhDAbI1o-40" value="2 Categorical + M&lt;br&gt;Numerical covariates" style="rounded=0;whiteSpace=wrap;html=1;" parent="1" vertex="1">
          <mxGeometry x="827" y="280" width="120" height="60" as="geometry" />
        </mxCell>
        <mxCell id="x7gbHvze0u9rKhDAbI1o-55" value="" style="edgeStyle=orthogonalEdgeStyle;rounded=0;orthogonalLoop=1;jettySize=auto;html=1;" parent="1" source="x7gbHvze0u9rKhDAbI1o-41" target="x7gbHvze0u9rKhDAbI1o-47" edge="1">
          <mxGeometry relative="1" as="geometry" />
        </mxCell>
        <mxCell id="x7gbHvze0u9rKhDAbI1o-41" value="M Numerical" style="rounded=0;whiteSpace=wrap;html=1;" parent="1" vertex="1">
          <mxGeometry x="530" y="280" width="120" height="60" as="geometry" />
        </mxCell>
        <mxCell id="x7gbHvze0u9rKhDAbI1o-45" value="&lt;span&gt;1-Way ANCOVA&lt;/span&gt;" style="ellipse;whiteSpace=wrap;html=1;" parent="1" vertex="1">
          <mxGeometry x="680" y="500" width="120" height="80" as="geometry" />
        </mxCell>
        <mxCell id="x7gbHvze0u9rKhDAbI1o-46" value="&lt;span&gt;2-Way ANCOVA&lt;/span&gt;" style="ellipse;whiteSpace=wrap;html=1;" parent="1" vertex="1">
          <mxGeometry x="827" y="500" width="120" height="80" as="geometry" />
        </mxCell>
        <mxCell id="x7gbHvze0u9rKhDAbI1o-47" value="&lt;span&gt;Multiple correlation&lt;br&gt;&lt;/span&gt;" style="ellipse;whiteSpace=wrap;html=1;" parent="1" vertex="1">
          <mxGeometry x="530" y="400" width="120" height="80" as="geometry" />
        </mxCell>
        <mxCell id="x7gbHvze0u9rKhDAbI1o-54" style="edgeStyle=orthogonalEdgeStyle;rounded=0;orthogonalLoop=1;jettySize=auto;html=1;exitX=0.5;exitY=1;exitDx=0;exitDy=0;entryX=0.5;entryY=0;entryDx=0;entryDy=0;" parent="1" source="x7gbHvze0u9rKhDAbI1o-48" target="x7gbHvze0u9rKhDAbI1o-49" edge="1">
          <mxGeometry relative="1" as="geometry" />
        </mxCell>
        <mxCell id="x7gbHvze0u9rKhDAbI1o-48" value="2 Categorical" style="rounded=0;whiteSpace=wrap;html=1;" parent="1" vertex="1">
          <mxGeometry x="380" y="280" width="120" height="60" as="geometry" />
        </mxCell>
        <mxCell id="x7gbHvze0u9rKhDAbI1o-49" value="&lt;span&gt;2-Way ANOVA&lt;/span&gt;" style="ellipse;whiteSpace=wrap;html=1;" parent="1" vertex="1">
          <mxGeometry x="380" y="400" width="120" height="80" as="geometry" />
        </mxCell>
        <mxCell id="x7gbHvze0u9rKhDAbI1o-58" value="+ Homogeneity of covariances" style="rounded=0;whiteSpace=wrap;html=1;" parent="1" vertex="1">
          <mxGeometry x="700" y="410" width="220" height="30" as="geometry" />
        </mxCell>
        <mxCell id="sU1CsyUOXi9waq4NskRp-10" style="edgeStyle=orthogonalEdgeStyle;rounded=0;orthogonalLoop=1;jettySize=auto;html=1;exitX=0.5;exitY=1;exitDx=0;exitDy=0;entryX=0.5;entryY=0;entryDx=0;entryDy=0;" edge="1" parent="1" source="sU1CsyUOXi9waq4NskRp-2" target="x7gbHvze0u9rKhDAbI1o-10">
          <mxGeometry relative="1" as="geometry" />
        </mxCell>
        <mxCell id="sU1CsyUOXi9waq4NskRp-2" value="Non-linear&lt;br&gt;correlation" style="rounded=0;whiteSpace=wrap;html=1;" vertex="1" parent="1">
          <mxGeometry x="-195" y="340" width="80" height="40" as="geometry" />
        </mxCell>
        <mxCell id="sU1CsyUOXi9waq4NskRp-4" style="edgeStyle=orthogonalEdgeStyle;rounded=0;orthogonalLoop=1;jettySize=auto;html=1;entryX=1;entryY=0.5;entryDx=0;entryDy=0;" edge="1" parent="1" source="sU1CsyUOXi9waq4NskRp-3" target="x7gbHvze0u9rKhDAbI1o-6">
          <mxGeometry relative="1" as="geometry" />
        </mxCell>
        <mxCell id="sU1CsyUOXi9waq4NskRp-3" value="N-WAY&lt;br&gt;N independent vars&lt;br&gt;vs&lt;br&gt;K Dependent vars" style="rounded=0;whiteSpace=wrap;html=1;" vertex="1" parent="1">
          <mxGeometry x="970" y="150" width="160" height="90" as="geometry" />
        </mxCell>
        <mxCell id="sU1CsyUOXi9waq4NskRp-5" value="Multiple correlation,&lt;br&gt;MANOVA or&lt;br&gt;MANCOVA" style="ellipse;whiteSpace=wrap;html=1;" vertex="1" parent="1">
          <mxGeometry x="790" y="152.5" width="130" height="85" as="geometry" />
        </mxCell>
        <mxCell id="sU1CsyUOXi9waq4NskRp-14" style="edgeStyle=orthogonalEdgeStyle;rounded=0;orthogonalLoop=1;jettySize=auto;html=1;exitX=0.75;exitY=0;exitDx=0;exitDy=0;entryX=0;entryY=0.5;entryDx=0;entryDy=0;" edge="1" parent="1" source="sU1CsyUOXi9waq4NskRp-12" target="x7gbHvze0u9rKhDAbI1o-3">
          <mxGeometry relative="1" as="geometry">
            <Array as="points">
              <mxPoint x="80" y="360" />
              <mxPoint x="120" y="360" />
              <mxPoint x="120" y="310" />
            </Array>
          </mxGeometry>
        </mxCell>
        <mxCell id="sU1CsyUOXi9waq4NskRp-12" value="Divide in intervals and treat as categories" style="rounded=0;whiteSpace=wrap;html=1;" vertex="1" parent="1">
          <mxGeometry x="20" y="390" width="80" height="70" as="geometry" />
        </mxCell>
      </root>
    </mxGraphModel>
  </diagram>
</mxfile>
